<svg width="32" height="32" viewBox="0 0 32 32" fill="none" xmlns="http://www.w3.org/2000/svg">
<g clip-path="url(#clip0_4088_121987)">
<path d="M8.694 3.5H23.306C26.4508 3.5 29 6.04922 29 9.194V23.806C29 26.9508 26.4508 29.5 23.306 29.5H8.694C5.54922 29.5 3 26.9508 3 23.806V9.194C3 6.04922 5.54922 3.5 8.694 3.5Z" fill="url(#paint0_linear_4088_121987)"/>
<path d="M11.3321 22.3713L11.3345 22.3722L10.4456 23.9118C10.1211 24.4739 9.40242 24.6665 8.84037 24.342C8.27833 24.0175 8.08577 23.2988 8.41026 22.7368L9.06513 21.6025L9.128 21.4936C9.24023 21.3324 9.51719 21.0539 10.0712 21.1063C10.0712 21.1063 11.375 21.2478 11.4693 21.9254C11.4693 21.9254 11.4821 22.1483 11.3321 22.3713ZM23.9404 18.4388H21.1683C20.9795 18.4261 20.8972 18.3587 20.8647 18.3195L20.8626 18.316L17.8953 13.1763L17.8914 13.1788L17.7135 12.9237C17.4218 12.4776 16.9587 13.6184 16.9587 13.6184C16.4057 14.8895 17.0372 16.3347 17.2573 16.7715L21.3789 23.9103C21.7033 24.4723 22.4219 24.6649 22.9841 24.3403C23.546 24.0158 23.7387 23.2972 23.4141 22.7351L22.3835 20.9501C22.3635 20.9068 22.3288 20.7894 22.5401 20.7889H23.9404C24.5894 20.7889 25.1155 20.2628 25.1155 19.6138C25.1155 18.9648 24.5894 18.4388 23.9404 18.4388ZM18.5561 20.0361C18.5561 20.0361 18.7041 20.7888 18.1316 20.7888H7.88406C7.23508 20.7888 6.70898 20.2627 6.70898 19.6137C6.70898 18.9647 7.23508 18.4386 7.88406 18.4386H10.5186C10.9439 18.4141 11.0447 18.1685 11.0447 18.1685L11.0471 18.1697L14.486 12.2133L14.485 12.2131C14.5477 12.098 14.4955 11.9892 14.4864 11.9721L13.3507 10.0049C13.0262 9.44295 13.2187 8.72419 13.7808 8.3998C14.3428 8.07541 15.0615 8.26777 15.386 8.82981L15.9127 9.74215L16.4385 8.83144C16.763 8.26949 17.4816 8.07683 18.0437 8.40142C18.6057 8.72602 18.7983 9.44447 18.4738 10.0065L13.6884 18.295C13.6674 18.3455 13.661 18.4247 13.8167 18.4386H16.6771L16.6777 18.4666C16.6777 18.4666 18.331 18.4923 18.5561 20.0361Z" fill="#FFFFFE"/>
</g>
<defs>
<linearGradient id="paint0_linear_4088_121987" x1="16" y1="3.5" x2="16" y2="29.5" gradientUnits="userSpaceOnUse">
<stop stop-color="#17C9FB"/>
<stop offset="1" stop-color="#1A74E8"/>
</linearGradient>
<clipPath id="clip0_4088_121987">
<rect width="26" height="26" fill="white" transform="translate(3 3.5)"/>
</clipPath>
</defs>
</svg>
