<svg width="76" height="76" viewBox="0 0 76 76" fill="none" xmlns="http://www.w3.org/2000/svg">
<rect width="76" height="76" rx="16" fill="#E8F0F9"/>
<path d="M15.834 48.5006C15.834 50.669 15.834 51.7532 16.0133 52.6548C16.7498 56.3573 19.644 59.2515 23.3465 59.988C24.2481 60.1673 25.3323 60.1673 27.5007 60.1673M60.1673 48.5006C60.1673 50.669 60.1673 51.7532 59.988 52.6548C59.2515 56.3573 56.3573 59.2515 52.6548 59.988C51.7532 60.1673 50.669 60.1673 48.5006 60.1673M60.1673 27.5007C60.1673 25.3323 60.1673 24.2481 59.988 23.3465C59.2515 19.644 56.3573 16.7498 52.6548 16.0133C51.7532 15.834 50.669 15.834 48.5006 15.834M15.834 27.5007C15.834 25.3323 15.834 24.2481 16.0133 23.3465C16.7498 19.644 19.644 16.7498 23.3465 16.0133C24.2481 15.834 25.3323 15.834 27.5007 15.834" stroke="#1565C0" stroke-width="3.5" stroke-linecap="round" stroke-linejoin="round"/>
<path d="M38.0007 29.8337V25.167M33.334 36.8337V38.0003M42.6673 36.8337V38.0003M35.6673 29.8337H40.334C44.5675 29.8337 46.6843 29.8337 48.0616 31.0693C48.1916 31.1859 48.3151 31.3094 48.4317 31.4394C49.6673 32.8167 49.6673 34.9334 49.6673 39.167C49.6673 43.4006 49.6673 45.5173 48.4317 46.8946C48.3151 47.0246 48.1916 47.1481 48.0616 47.2647C46.6843 48.5003 44.5675 48.5003 40.334 48.5003H35.6673C31.4338 48.5003 29.317 48.5003 27.9397 47.2647C27.8097 47.1481 27.6862 47.0246 27.5696 46.8946C26.334 45.5173 26.334 43.4006 26.334 39.167C26.334 34.9334 26.334 32.8167 27.5696 31.4394C27.6862 31.3094 27.8097 31.1859 27.9397 31.0693C29.317 29.8337 31.4338 29.8337 35.6673 29.8337Z" stroke="#1565C0" stroke-width="3.5" stroke-linecap="round" stroke-linejoin="round"/>
</svg>
