<svg width="76" height="76" viewBox="0 0 76 76" fill="none" xmlns="http://www.w3.org/2000/svg">
<rect width="76" height="76" rx="16" fill="#FEF0DA"/>
<path d="M56.6673 61.334V54.334C56.6673 47.7343 56.6673 44.4345 54.6171 42.3842C52.5668 40.334 49.267 40.334 42.6673 40.334L38.0007 45.0007L33.334 40.334C26.7343 40.334 23.4345 40.334 21.3842 42.3842C19.334 44.4345 19.334 47.7343 19.334 54.334V61.334" stroke="#F59E0B" stroke-width="3.5" stroke-linecap="round" stroke-linejoin="round"/>
<path d="M47.334 40.334V53.1673" stroke="#F59E0B" stroke-width="3.5" stroke-linecap="round" stroke-linejoin="round"/>
<path d="M29.8337 40.334V49.6673M29.8337 49.6673C32.411 49.6673 34.5003 51.7567 34.5003 54.334V56.6673M29.8337 49.6673C27.2563 49.6673 25.167 51.7567 25.167 54.334V56.6673" stroke="#F59E0B" stroke-width="3.5" stroke-linecap="round" stroke-linejoin="round"/>
<path d="M46.1673 25.167V22.8337C46.1673 18.3233 42.511 14.667 38.0007 14.667C33.4903 14.667 29.834 18.3233 29.834 22.8337V25.167C29.834 29.6773 33.4903 33.3337 38.0007 33.3337C42.511 33.3337 46.1673 29.6773 46.1673 25.167Z" stroke="#F59E0B" stroke-width="3.5" stroke-linecap="round" stroke-linejoin="round"/>
<path d="M49.084 54.917C49.084 55.8835 48.3005 56.667 47.334 56.667C46.3675 56.667 45.584 55.8835 45.584 54.917C45.584 53.9505 46.3675 53.167 47.334 53.167C48.3005 53.167 49.084 53.9505 49.084 54.917Z" stroke="#F59E0B" stroke-width="3.5"/>
</svg>
