<svg width="100" height="100" viewBox="0 0 100 100" fill="none" xmlns="http://www.w3.org/2000/svg">
<rect width="100" height="100" rx="50" fill="#FFFFFE"/>
<rect x="10" y="10" width="80" height="80" rx="40" fill="#FEF0DA"/>
<path d="M61.0007 40.4997C60.9225 37.9106 60.6335 36.3663 59.5635 35.2975C58.0975 33.833 55.7378 33.833 51.0187 33.833H44.3448C39.6257 33.833 37.2661 33.833 35.8 35.2975C34.334 36.7619 34.334 39.119 34.334 43.833V57.1663C34.334 61.8803 34.334 64.2373 35.8 65.7018C37.2661 67.1663 39.6257 67.1663 44.3448 67.1663H51.0187C55.7378 67.1663 58.0975 67.1663 59.5635 65.7018C60.6335 64.633 60.9225 63.0888 61.0007 60.4997" stroke="#F59E0B" stroke-width="3.5" stroke-linecap="round" stroke-linejoin="round"/>
<path d="M60.4331 46.7632L51.6561 55.5402L50.0029 60.4997L54.9624 58.8465L63.7394 50.0695L65.7013 48.1077C66.1519 47.657 66.3773 47.4317 66.4978 47.1887C66.7269 46.7261 66.7269 46.1831 66.4978 45.7205C66.3773 45.4774 66.1519 45.2521 65.7013 44.8014C65.2504 44.3507 65.0251 44.1254 64.7821 44.0049C64.3196 43.7757 63.7766 43.7757 63.3139 44.0049C63.0709 44.1254 62.8456 44.3507 62.3949 44.8014L60.4331 46.7632ZM63.7394 50.0695L60.4331 46.7632" stroke="#F59E0B" stroke-width="3.5" stroke-linecap="round" stroke-linejoin="round"/>
<path d="M39.334 62.1667H41.0007L43.084 58L45.1673 62.1667H46.834" stroke="#F59E0B" stroke-width="3.5" stroke-linecap="round" stroke-linejoin="round"/>
<path d="M40 40.5H53.3333" stroke="#F59E0B" stroke-width="3.5" stroke-linecap="round" stroke-linejoin="round"/>
<path d="M40 47.167H50" stroke="#F59E0B" stroke-width="3.5" stroke-linecap="round" stroke-linejoin="round"/>
</svg>
