<svg width="618" height="508" viewBox="0 0 618 508" fill="none" xmlns="http://www.w3.org/2000/svg">
<path d="M334.489 -120.181C497.996 -120.181 634.096 -2.86103 663.215 152.19L605.03 152.693C602.687 139.018 594.305 118.782 569.126 84.3943C543.946 50.0054 509.591 23.3998 469.996 7.62311C430.401 -8.15327 387.163 -12.4655 345.233 -4.81694C303.302 2.8321 264.37 22.1331 232.896 50.8743C206.166 75.2839 185.659 105.732 173.09 139.678C160.521 173.624 156.253 210.085 160.64 246.016C165.027 281.947 177.945 316.306 198.312 346.23C218.68 376.155 245.906 400.778 277.724 418.039C309.542 435.3 345.028 444.698 381.219 445.457C417.409 446.215 453.255 438.309 485.767 422.396C518.28 406.483 546.517 383.023 568.12 353.978C589.723 324.933 600.678 303.62 604.445 289.937L660.441 289.722C626.242 438.136 493.289 548.798 334.489 548.798C149.756 548.798 0 399.042 0 214.308C0 29.5752 149.756 -120.181 334.489 -120.181Z" fill="#E8F0F9" fill-opacity="0.1"/>
<path fill-rule="evenodd" clip-rule="evenodd" d="M268.91 90.3185C302.909 59.2757 347.848 43.0102 393.84 45.1006C439.832 47.1913 483.11 67.4667 514.153 101.466C545.196 135.465 561.462 180.407 559.371 226.4C557.28 272.391 537.005 315.67 503.006 346.713C469.007 377.755 424.067 394.018 378.075 391.927C332.083 389.836 288.805 369.562 257.762 335.562C226.719 301.562 210.454 256.624 212.545 210.632C214.635 164.64 234.91 121.361 268.91 90.3185ZM392.629 71.7798C353.713 70.0108 315.687 83.7738 286.918 110.041C258.149 136.308 240.993 172.929 239.224 211.846C237.455 250.762 251.218 288.788 277.485 317.557C303.751 346.325 340.371 363.482 379.286 365.251C418.203 367.02 456.229 353.254 484.998 326.987C513.766 300.72 530.923 264.102 532.692 225.185C534.461 186.269 520.698 148.243 494.431 119.474C468.164 90.7056 431.545 73.5491 392.629 71.7798Z" fill="#E8F0F9" fill-opacity="0.1"/>
</svg>
