<svg width="32" height="32" viewBox="0 0 32 32" fill="none" xmlns="http://www.w3.org/2000/svg">
<path d="M21.6805 20.0003L7.56046 27.8136C6.78712 28.2403 5.74712 28.607 5.13379 28.047L17.7671 16.0003L21.6805 20.0003Z" fill="#EF4444"/>
<path d="M17.7871 16.0003L5.13379 28.047M5.13379 28.047C5.74712 28.607 6.78712 28.2403 7.56046 27.8136L21.6805 20.0003L17.7671 16.0003L5.13379 28.047ZM21.6805 19.9736L17.7671 15.9736" stroke="#EF4444" stroke-width="0.5" stroke-linecap="round" stroke-linejoin="round"/>
<path d="M21.6799 12.0003L26.3466 14.5803C28.0066 15.5003 28.0066 16.4736 26.3466 17.3936L21.6799 19.9736L17.7666 15.9736L21.6799 11.9736V12.0003Z" fill="#FBBC04"/>
<path d="M21.6799 12.0003L17.7666 16.0003L21.6799 20.0003M21.6799 12.0003L26.3466 14.5803C28.0066 15.5003 28.0066 16.4736 26.3466 17.3936L21.6799 19.9736L17.7666 15.9736L21.6799 11.9736V12.0003Z" stroke="#FBBC04" stroke-width="0.5" stroke-linecap="round" stroke-linejoin="round"/>
<path d="M5.11992 3.93359L17.7866 16.0003L5.13325 28.0469C4.66659 27.6736 4.41992 26.9203 4.41992 25.8069V6.19359C4.41992 5.08026 4.65992 4.31359 5.08659 3.94026L5.11992 3.93359Z" fill="#3BCCFF"/>
<path d="M5.11992 3.93359L17.7666 16.0003L5.13325 28.0469M5.13325 28.0469C4.66659 27.6736 4.41992 26.9203 4.41992 25.8069V6.19359C4.41992 5.08026 4.65992 4.31359 5.08659 3.94026L5.11992 3.93359L17.7866 16.0003L5.13325 28.0469Z" stroke="#3BCCFF" stroke-width="0.5" stroke-linecap="round" stroke-linejoin="round"/>
<path d="M6.20025 3.67971C6.66803 3.77928 7.11772 3.95016 7.53358 4.18637L21.6802 11.9997L17.7669 15.9997L5.12025 3.93304C5.43989 3.72571 5.82175 3.63614 6.20025 3.67971Z" fill="#22C55E"/>
<path d="M21.6802 11.9997L7.53358 4.18637C7.11772 3.95016 6.66803 3.77928 6.20025 3.67971C5.82175 3.63614 5.43989 3.72571 5.12025 3.93304M21.6802 11.973V11.9997L17.7669 15.9997L5.12025 3.93304M5.12025 3.93304L17.7869 15.9997M5.12025 3.93304L5.08691 3.93971" stroke="#22C55E" stroke-width="0.5" stroke-linecap="round" stroke-linejoin="round"/>
</svg>
