<svg width="32" height="32" viewBox="0 0 32 32" fill="none" xmlns="http://www.w3.org/2000/svg">
<path d="M9.33203 28V24" stroke="#FFFFFE" stroke-width="2" stroke-linecap="round" stroke-linejoin="round"/>
<path d="M22.668 28V20" stroke="#FFFFFE" stroke-width="2" stroke-linecap="round" stroke-linejoin="round"/>
<path d="M22.668 8V4" stroke="#FFFFFE" stroke-width="2" stroke-linecap="round" stroke-linejoin="round"/>
<path d="M9.33203 12V4" stroke="#FFFFFE" stroke-width="2" stroke-linecap="round" stroke-linejoin="round"/>
<path d="M9.33203 24C8.08952 24 7.46827 24 6.9782 23.7971C6.3248 23.5264 5.80567 23.0072 5.53502 22.3539C5.33203 21.8637 5.33203 21.2425 5.33203 20C5.33203 18.7575 5.33203 18.1363 5.53502 17.6461C5.80567 16.9928 6.3248 16.4736 6.9782 16.2029C7.46827 16 8.08952 16 9.33203 16C10.5745 16 11.1958 16 11.6859 16.2029C12.3393 16.4736 12.8584 16.9928 13.129 17.6461C13.332 18.1363 13.332 18.7575 13.332 20C13.332 21.2425 13.332 21.8637 13.129 22.3539C12.8584 23.0072 12.3393 23.5264 11.6859 23.7971C11.1958 24 10.5745 24 9.33203 24Z" stroke="#FFFFFE" stroke-width="2" stroke-linecap="round" stroke-linejoin="round"/>
<path d="M22.668 16C21.4254 16 20.8042 16 20.3141 15.7971C19.6608 15.5264 19.1416 15.0072 18.8709 14.3539C18.668 13.8637 18.668 13.2425 18.668 12C18.668 10.7575 18.668 10.1362 18.8709 9.64617C19.1416 8.99277 19.6608 8.47364 20.3141 8.20299C20.8042 8 21.4254 8 22.668 8C23.9105 8 24.5317 8 25.0218 8.20299C25.6752 8.47364 26.1944 8.99277 26.465 9.64617C26.668 10.1362 26.668 10.7575 26.668 12C26.668 13.2425 26.668 13.8637 26.465 14.3539C26.1944 15.0072 25.6752 15.5264 25.0218 15.7971C24.5317 16 23.9105 16 22.668 16Z" stroke="#FFFFFE" stroke-width="2" stroke-linecap="round" stroke-linejoin="round"/>
</svg>
