<svg width="32" height="32" viewBox="0 0 32 32" fill="none" xmlns="http://www.w3.org/2000/svg">
<path d="M10.668 22.667H21.3346" stroke="#FFFFFE" stroke-width="2" stroke-linecap="round" stroke-linejoin="round"/>
<path d="M10.668 17.333H16.0013" stroke="#FFFFFE" stroke-width="2" stroke-linecap="round" stroke-linejoin="round"/>
<path d="M17.332 3.33366V4.00033C17.332 7.77157 17.332 9.65718 18.5036 10.8288C19.6752 12.0003 21.5608 12.0003 25.332 12.0003H25.9987M26.6654 14.2095V18.667C26.6654 23.6953 26.6654 26.2095 25.1032 27.7715C23.5412 29.3337 21.027 29.3337 15.9987 29.3337C10.9704 29.3337 8.45623 29.3337 6.89412 27.7715C5.33203 26.2095 5.33203 23.6953 5.33203 18.667V12.6081C5.33203 8.28142 5.33203 6.11807 6.51346 4.65277C6.75214 4.35674 7.02178 4.0871 7.3178 3.84842C8.78311 2.66699 10.9465 2.66699 15.2731 2.66699C16.2139 2.66699 16.6842 2.66699 17.115 2.81901C17.2046 2.85062 17.2923 2.88699 17.378 2.92799C17.7902 3.12506 18.1227 3.45766 18.7879 4.12283L25.1032 10.4382C25.874 11.209 26.2594 11.5944 26.4624 12.0844C26.6654 12.5745 26.6654 13.1195 26.6654 14.2095Z" stroke="#FFFFFE" stroke-width="2" stroke-linecap="round" stroke-linejoin="round"/>
</svg>
