<svg width="76" height="76" viewBox="0 0 76 76" fill="none" xmlns="http://www.w3.org/2000/svg">
<rect width="76" height="76" rx="16" fill="#DEF6E7"/>
<path d="M52.0013 24.0003C51.8919 20.3756 51.4873 18.2136 49.9893 16.7172C47.9369 14.667 44.6333 14.667 38.0265 14.667H28.6831C22.0763 14.667 18.7729 14.667 16.7204 16.7172C14.668 18.7675 14.668 22.0673 14.668 28.667V47.3337C14.668 53.9333 14.668 57.2331 16.7204 59.2834C18.7729 61.3337 22.0763 61.3337 28.6831 61.3337H38.0265C44.6333 61.3337 47.9369 61.3337 49.9893 59.2834C51.4873 57.787 51.8919 55.6252 52.0013 52.0003" stroke="#22C55E" stroke-width="3.5" stroke-linecap="round" stroke-linejoin="round"/>
<path d="M52.6061 32.7692L40.3183 45.057L38.0039 52.0003L44.9472 49.6859L57.235 37.3981L59.9816 34.6515C60.6125 34.0206 60.928 33.7051 61.0967 33.3649C61.4175 32.7173 61.4175 31.9571 61.0967 31.3095C60.928 30.9692 60.6125 30.6537 59.9816 30.0228C59.3504 29.3918 59.0349 29.0763 58.6947 28.9077C58.0472 28.5868 57.287 28.5868 56.6393 28.9077C56.2991 29.0763 55.9836 29.3918 55.3527 30.0228L52.6061 32.7692ZM57.235 37.3981L52.6061 32.7692" stroke="#22C55E" stroke-width="3.5" stroke-linecap="round" stroke-linejoin="round"/>
<path d="M21.668 54.3333H24.0013L26.918 48.5L29.8346 54.3333H32.168" stroke="#22C55E" stroke-width="3.5" stroke-linecap="round" stroke-linejoin="round"/>
<path d="M24 24H42.6667" stroke="#22C55E" stroke-width="3.5" stroke-linecap="round" stroke-linejoin="round"/>
<path d="M24 33.333H38" stroke="#22C55E" stroke-width="3.5" stroke-linecap="round" stroke-linejoin="round"/>
</svg>
