<svg width="32" height="32" viewBox="0 0 32 32" fill="none" xmlns="http://www.w3.org/2000/svg">
<path d="M8.66699 4.66699H6.00033C5.26395 4.66699 4.66699 5.26395 4.66699 6.00033V10.667C4.66699 14.7171 7.95023 18.0003 12.0003 18.0003C16.0505 18.0003 19.3337 14.7171 19.3337 10.667V6.00033C19.3337 5.26395 18.7367 4.66699 18.0003 4.66699H15.3337" stroke="#FFFFFE" stroke-width="2" stroke-linecap="round" stroke-linejoin="round"/>
<path d="M24.6667 20.6667V22.3333C24.6667 25.8312 21.8312 28.6667 18.3333 28.6667C14.8355 28.6667 12 25.8312 12 22.3333V18" stroke="#FFFFFE" stroke-width="2" stroke-linecap="round" stroke-linejoin="round"/>
<path d="M15.333 3.33301V5.99967" stroke="#FFFFFE" stroke-width="2" stroke-linecap="round" stroke-linejoin="round"/>
<path d="M8.66699 3.33301V5.99967" stroke="#FFFFFE" stroke-width="2" stroke-linecap="round" stroke-linejoin="round"/>
<path d="M27.3333 17.9997C27.3333 19.4725 26.1395 20.6663 24.6667 20.6663C23.1939 20.6663 22 19.4725 22 17.9997C22 16.5269 23.1939 15.333 24.6667 15.333C26.1395 15.333 27.3333 16.5269 27.3333 17.9997Z" stroke="#FFFFFE" stroke-width="2" stroke-linecap="round" stroke-linejoin="round"/>
</svg>
