<svg width="20" height="20" viewBox="0 0 20 20" fill="none" xmlns="http://www.w3.org/2000/svg">
<path d="M1.98828 13.1232C1.98828 13.8623 1.98828 14.2319 2.04941 14.5392C2.30044 15.8012 3.28699 16.7878 4.54902 17.0388C4.85634 17.0999 5.22591 17.0999 5.96503 17.0999M17.0999 13.1232C17.0999 13.8623 17.0999 14.2319 17.0388 14.5392C16.7878 15.8012 15.8012 16.7878 14.5392 17.0388C14.2319 17.0999 13.8623 17.0999 13.1232 17.0999M17.0999 5.96503C17.0999 5.22591 17.0999 4.85634 17.0388 4.54902C16.7878 3.28699 15.8012 2.30044 14.5392 2.04941C14.2319 1.98828 13.8623 1.98828 13.1232 1.98828M1.98828 5.96503C1.98828 5.22591 1.98828 4.85634 2.04941 4.54902C2.30044 3.28699 3.28699 2.30044 4.54902 2.04941C4.85634 1.98828 5.22591 1.98828 5.96503 1.98828" stroke="#1B1B1B" stroke-width="1.19303" stroke-linecap="round" stroke-linejoin="round"/>
<path d="M9.54414 6.76062V5.16992M7.95343 9.14667V9.54435M11.1348 9.14667V9.54435M8.74878 6.76062H10.3395C11.8392 6.76062 12.5891 6.76062 13.055 7.22653C13.5209 7.69243 13.5209 8.4423 13.5209 9.94202C13.5209 11.4418 13.5209 12.1916 13.055 12.6575C12.5891 13.1234 11.8392 13.1234 10.3395 13.1234H8.74878C7.24906 13.1234 6.49919 13.1234 6.03329 12.6575C5.56738 12.1916 5.56738 11.4418 5.56738 9.94202C5.56738 8.4423 5.56738 7.69243 6.03329 7.22653C6.49919 6.76062 7.24906 6.76062 8.74878 6.76062Z" stroke="#1B1B1B" stroke-width="1.19303" stroke-linecap="round" stroke-linejoin="round"/>
</svg>
