<svg width="177" height="41" viewBox="0 0 177 41" fill="none" xmlns="http://www.w3.org/2000/svg">
<path d="M20.2914 0C30.2103 0 38.4667 7.11705 40.2331 16.5231L36.7034 16.5536C36.5613 15.7239 36.0528 14.4964 34.5253 12.4103C32.9978 10.3241 30.9137 8.71013 28.5117 7.75306C26.1097 6.79601 23.4868 6.53441 20.9431 6.9984C18.3994 7.46242 16.0377 8.63329 14.1284 10.3768C12.5068 11.8576 11.2628 13.7047 10.5003 15.764C9.73781 17.8233 9.47888 20.0351 9.74502 22.2149C10.0112 24.3946 10.7948 26.479 12.0304 28.2943C13.266 30.1096 14.9176 31.6033 16.8478 32.6504C18.778 33.6975 20.9307 34.2677 23.1262 34.3137C25.3216 34.3597 27.4962 33.8801 29.4685 32.9148C31.4408 31.9494 33.1538 30.5262 34.4643 28.7642C35.7748 27.0023 36.4394 25.7094 36.6679 24.8793L40.0648 24.8662C37.9902 33.8696 29.9248 40.5828 20.2914 40.5828C9.08476 40.5828 0 31.498 0 20.2914C0 9.08476 9.08476 0 20.2914 0Z" fill="#1565C0"/>
<path fill-rule="evenodd" clip-rule="evenodd" d="M16.3131 12.7697C18.3756 10.8865 21.1018 9.89977 23.8918 10.0266C26.6819 10.1534 29.3073 11.3834 31.1905 13.4459C33.0737 15.5085 34.0604 18.2348 33.9336 21.0249C33.8067 23.8149 32.5768 26.4404 30.5143 28.3235C28.4517 30.2067 25.7255 31.1932 22.9355 31.0664C20.1454 30.9396 17.52 29.7096 15.6368 27.6471C13.7537 25.5845 12.7669 22.8584 12.8938 20.0683C13.0206 17.2783 14.2505 14.6529 16.3131 12.7697ZM23.8184 11.6451C21.4576 11.5377 19.1508 12.3726 17.4055 13.9661C15.6603 15.5596 14.6195 17.7812 14.5122 20.142C14.4049 22.5028 15.2398 24.8096 16.8333 26.5548C18.4267 28.3 20.6482 29.3408 23.0089 29.4481C25.3698 29.5555 27.6766 28.7204 29.4218 27.1269C31.167 25.5334 32.2078 23.312 32.3151 20.9512C32.4224 18.5904 31.5875 16.2836 29.9941 14.5384C28.4006 12.7932 26.1792 11.7524 23.8184 11.6451Z" fill="#1565C0"/>
<path d="M62.778 10.5047C64.1666 10.5047 65.3028 10.7151 66.1864 11.1359C67.0912 11.5357 67.8907 12.0091 68.585 12.5561C69.0058 12.8717 69.3214 12.9138 69.5318 12.6823C69.7632 12.4299 69.921 11.8513 70.0052 10.9465H70.7311C70.689 11.7461 70.6574 12.7139 70.6364 13.8501C70.6154 14.9652 70.6048 16.459 70.6048 18.3316H69.879C69.7317 17.4058 69.5844 16.6484 69.4371 16.0593C69.3109 15.4701 69.132 14.9652 68.9006 14.5444C68.6902 14.1236 68.3956 13.7133 68.0169 13.3135C67.4068 12.5561 66.6598 12.0091 65.7762 11.6724C64.8925 11.3358 63.9562 11.1675 62.9673 11.1675C61.8943 11.1675 60.9475 11.441 60.1269 11.988C59.3064 12.514 58.612 13.2715 58.044 14.2603C57.4969 15.2492 57.0761 16.4169 56.7816 17.7635C56.487 19.1101 56.3397 20.5829 56.3397 22.1819C56.3397 23.823 56.4975 25.3169 56.8131 26.6634C57.1287 27.9889 57.5811 29.1356 58.1702 30.1035C58.7804 31.0503 59.5062 31.7867 60.3478 32.3127C61.2105 32.8176 62.1678 33.0701 63.2198 33.0701C64.0824 33.0701 64.9766 32.9018 65.9024 32.5651C66.8282 32.2075 67.5646 31.6709 68.1116 30.9556C68.7007 30.3244 69.1005 29.6195 69.3109 28.8411C69.5423 28.0415 69.7317 26.958 69.879 25.5904H70.6048C70.6048 27.5261 70.6154 29.0935 70.6364 30.2928C70.6574 31.4711 70.689 32.4705 70.7311 33.291H70.0052C69.921 32.3863 69.7738 31.8182 69.5634 31.5868C69.374 31.3553 69.0479 31.3869 68.585 31.6815C67.8065 32.2285 66.9754 32.7124 66.0918 33.1332C65.2291 33.533 64.114 33.7329 62.7464 33.7329C60.6634 33.7329 58.8435 33.2805 57.2865 32.3758C55.7296 31.4711 54.5198 30.1666 53.6571 28.4623C52.7945 26.7581 52.3632 24.7067 52.3632 22.3081C52.3632 19.9517 52.805 17.8897 53.6887 16.1224C54.5934 14.355 55.8242 12.9769 57.3812 11.988C58.9382 10.9991 60.7371 10.5047 62.778 10.5047ZM78.4108 8.54797V30.3559C78.4108 31.2396 78.5791 31.8393 78.9157 32.1549C79.2734 32.4705 79.8625 32.6283 80.6831 32.6283V33.291C80.3254 33.27 79.7678 33.2489 79.0104 33.2279C78.253 33.1858 77.4955 33.1648 76.7381 33.1648C75.9806 33.1648 75.2127 33.1858 74.4342 33.2279C73.6768 33.2489 73.1087 33.27 72.73 33.291V32.6283C73.5505 32.6283 74.1291 32.4705 74.4658 32.1549C74.8234 31.8393 75.0023 31.2396 75.0023 30.3559V12.3352C75.0023 11.3884 74.8445 10.6941 74.5289 10.2522C74.2133 9.78933 73.6136 9.55789 72.73 9.55789V8.89513C73.4032 8.95825 74.0555 8.98981 74.6867 8.98981C75.381 8.98981 76.0438 8.95825 76.675 8.89513C77.3062 8.81097 77.8848 8.69525 78.4108 8.54797ZM85.3522 9.05293C86.0045 9.05293 86.5515 9.26333 86.9934 9.68413C87.4352 10.0839 87.6561 10.5889 87.6561 11.199C87.6561 11.8092 87.4352 12.3247 86.9934 12.7455C86.5515 13.1452 86.0045 13.3451 85.3522 13.3451C84.7 13.3451 84.153 13.1452 83.7111 12.7455C83.2693 12.3247 83.0484 11.8092 83.0484 11.199C83.0484 10.5889 83.2693 10.0839 83.7111 9.68413C84.153 9.26333 84.7 9.05293 85.3522 9.05293ZM87.2458 16.6589V30.3559C87.2458 31.2396 87.4142 31.8393 87.7508 32.1549C88.1085 32.4705 88.6976 32.6283 89.5182 32.6283V33.291C89.1605 33.27 88.6029 33.2489 87.8455 33.2279C87.1091 33.1858 86.3516 33.1648 85.5732 33.1648C84.8368 33.1648 84.0793 33.1858 83.3008 33.2279C82.5224 33.2489 81.9438 33.27 81.565 33.291V32.6283C82.3856 32.6283 82.9642 32.4705 83.3008 32.1549C83.6585 31.8393 83.8374 31.2396 83.8374 30.3559V20.4461C83.8374 19.4993 83.6796 18.805 83.364 18.3631C83.0484 17.9003 82.4487 17.6688 81.565 17.6688V17.0061C82.2383 17.0692 82.8906 17.1007 83.5218 17.1007C84.2371 17.1007 84.8999 17.0692 85.51 17.0061C86.1412 16.9219 86.7198 16.8062 87.2458 16.6589ZM101.379 16.5642C102.22 16.5642 102.904 16.6799 103.43 16.9114C103.977 17.1218 104.429 17.4163 104.787 17.7951C105.166 18.1948 105.429 18.7103 105.576 19.3415C105.744 19.9727 105.829 20.8248 105.829 21.8979V30.3559C105.829 31.2396 105.997 31.8393 106.333 32.1549C106.691 32.4705 107.28 32.6283 108.101 32.6283V33.291C107.743 33.27 107.186 33.2489 106.428 33.2279C105.671 33.1858 104.924 33.1648 104.187 33.1648C103.472 33.1648 102.757 33.1858 102.041 33.2279C101.347 33.2489 100.821 33.27 100.463 33.291V32.6283C101.179 32.6283 101.684 32.4705 101.978 32.1549C102.273 31.8393 102.42 31.2396 102.42 30.3559V21.0142C102.42 20.404 102.367 19.857 102.262 19.3731C102.157 18.8681 101.936 18.4683 101.599 18.1738C101.263 17.8582 100.758 17.7004 100.085 17.7004C99.3061 17.7004 98.6118 17.9213 98.0016 18.3631C97.4125 18.805 96.9391 19.4151 96.5814 20.1936C96.2448 20.9511 96.0765 21.8032 96.0765 22.75V30.3559C96.0765 31.2396 96.2238 31.8393 96.5183 32.1549C96.8339 32.4705 97.3389 32.6283 98.0332 32.6283V33.291C97.6966 33.27 97.1811 33.2489 96.4868 33.2279C95.8135 33.1858 95.1086 33.1648 94.3722 33.1648C93.6569 33.1648 92.91 33.1858 92.1315 33.2279C91.353 33.2489 90.7744 33.27 90.3957 33.291V32.6283C91.2162 32.6283 91.7948 32.4705 92.1315 32.1549C92.4892 31.8393 92.668 31.2396 92.668 30.3559V20.4461C92.668 19.4993 92.5102 18.805 92.1946 18.3631C91.879 17.9003 91.2794 17.6688 90.3957 17.6688V17.0061C91.069 17.0692 91.7212 17.1007 92.3524 17.1007C93.0678 17.1007 93.7305 17.0692 94.3407 17.0061C94.9719 16.9219 95.5505 16.8062 96.0765 16.6589V20.0989C96.6235 18.7945 97.3704 17.8792 98.3172 17.3532C99.2851 16.8272 100.306 16.5642 101.379 16.5642ZM114.651 16.5642C115.492 16.5642 116.218 16.701 116.828 16.9745C117.46 17.227 117.912 17.4584 118.185 17.6688C118.88 18.2159 119.311 17.8582 119.479 16.5958H120.174C120.132 17.1849 120.1 17.9003 120.079 18.7419C120.058 19.5624 120.048 20.6565 120.048 22.0241H119.353C119.227 21.2456 119.006 20.4882 118.69 19.7518C118.396 19.0154 117.954 18.4052 117.365 17.9213C116.797 17.4374 116.05 17.1954 115.124 17.1954C114.43 17.1954 113.851 17.3953 113.388 17.7951C112.925 18.1738 112.694 18.7419 112.694 19.4993C112.694 20.1305 112.883 20.6775 113.262 21.1404C113.641 21.6033 114.125 22.0346 114.714 22.4344C115.324 22.8341 115.976 23.2655 116.671 23.7283C117.449 24.2543 118.143 24.7803 118.754 25.3063C119.385 25.8113 119.879 26.3794 120.237 27.0106C120.616 27.6418 120.805 28.3782 120.805 29.2198C120.805 30.1876 120.542 31.0082 120.016 31.6815C119.511 32.3547 118.838 32.8702 117.996 33.2279C117.155 33.5645 116.229 33.7329 115.219 33.7329C114.714 33.7329 114.24 33.6803 113.799 33.5751C113.357 33.4909 112.947 33.3752 112.568 33.2279C112.336 33.1017 112.105 32.9754 111.873 32.8492C111.663 32.7019 111.453 32.5651 111.242 32.4389C111.032 32.2916 110.843 32.3127 110.674 32.502C110.506 32.6914 110.38 33.028 110.295 33.5119H109.601C109.643 32.8387 109.675 32.0181 109.696 31.0503C109.717 30.0824 109.727 28.799 109.727 27.1999H110.422C110.569 28.3571 110.79 29.3776 111.084 30.2613C111.379 31.1449 111.81 31.8393 112.378 32.3442C112.968 32.8281 113.767 33.0701 114.777 33.0701C115.177 33.0701 115.577 32.9859 115.976 32.8176C116.376 32.6283 116.702 32.3337 116.955 31.9339C117.228 31.5342 117.365 30.9977 117.365 30.3244C117.365 29.3986 117.039 28.6412 116.387 28.0521C115.755 27.4419 114.935 26.8002 113.925 26.1269C113.21 25.6219 112.526 25.1275 111.873 24.6436C111.242 24.1386 110.727 23.5811 110.327 22.9709C109.927 22.3397 109.727 21.5928 109.727 20.7301C109.727 19.7833 109.948 19.0049 110.39 18.3947C110.853 17.7845 111.463 17.3322 112.221 17.0376C112.978 16.722 113.788 16.5642 114.651 16.5642ZM126.206 9.05293C126.859 9.05293 127.406 9.26333 127.848 9.68413C128.289 10.0839 128.51 10.5889 128.51 11.199C128.51 11.8092 128.289 12.3247 127.848 12.7455C127.406 13.1452 126.859 13.3451 126.206 13.3451C125.554 13.3451 125.007 13.1452 124.565 12.7455C124.123 12.3247 123.903 11.8092 123.903 11.199C123.903 10.5889 124.123 10.0839 124.565 9.68413C125.007 9.26333 125.554 9.05293 126.206 9.05293ZM128.1 16.6589V30.3559C128.1 31.2396 128.268 31.8393 128.605 32.1549C128.963 32.4705 129.552 32.6283 130.372 32.6283V33.291C130.015 33.27 129.457 33.2489 128.7 33.2279C127.963 33.1858 127.206 33.1648 126.427 33.1648C125.691 33.1648 124.933 33.1858 124.155 33.2279C123.377 33.2489 122.798 33.27 122.419 33.291V32.6283C123.24 32.6283 123.818 32.4705 124.155 32.1549C124.513 31.8393 124.692 31.2396 124.692 30.3559V20.4461C124.692 19.4993 124.534 18.805 124.218 18.3631C123.903 17.9003 123.303 17.6688 122.419 17.6688V17.0061C123.092 17.0692 123.745 17.1007 124.376 17.1007C125.091 17.1007 125.754 17.0692 126.364 17.0061C126.995 16.9219 127.574 16.8062 128.1 16.6589ZM137.183 39.2243C136.005 39.2243 134.911 39.1086 133.901 38.8771C132.912 38.6457 132.112 38.288 131.502 37.8041C130.913 37.3412 130.619 36.7416 130.619 36.0052C130.619 35.3109 130.913 34.7007 131.502 34.1747C132.091 33.6487 132.923 33.2489 133.996 32.9754L134.216 33.4804C133.775 33.6697 133.427 33.9748 133.175 34.3956C132.944 34.8164 132.828 35.2793 132.828 35.7843C132.828 36.71 133.259 37.4254 134.122 37.9303C134.984 38.4353 136.121 38.6878 137.53 38.6878C138.477 38.6878 139.371 38.5615 140.213 38.3091C141.076 38.0776 141.77 37.6884 142.296 37.1413C142.843 36.5943 143.116 35.8895 143.116 35.0268C143.116 34.3535 142.874 33.7855 142.391 33.3226C141.907 32.8807 140.949 32.6598 139.519 32.6598H137.309C136.573 32.6598 135.889 32.5967 135.258 32.4705C134.627 32.3442 134.111 32.1023 133.712 31.7446C133.333 31.3659 133.143 30.8399 133.143 30.1666C133.143 29.4091 133.459 28.6938 134.09 28.0205C134.721 27.3472 135.784 26.6845 137.278 26.0322L137.657 26.3163C137.046 26.6529 136.499 27.0001 136.015 27.3577C135.553 27.6944 135.321 28.1152 135.321 28.6201C135.321 29.2934 135.805 29.6301 136.773 29.6301H140.528C141.517 29.6301 142.412 29.7668 143.211 30.0403C144.011 30.2928 144.652 30.7031 145.136 31.2712C145.62 31.8393 145.862 32.5862 145.862 33.5119C145.862 34.5008 145.536 35.4266 144.884 36.2892C144.253 37.1729 143.295 37.8777 142.012 38.4037C140.728 38.9508 139.119 39.2243 137.183 39.2243ZM137.372 26.5687C136.299 26.5687 135.321 26.4004 134.437 26.0638C133.554 25.7061 132.859 25.1591 132.354 24.4227C131.849 23.6863 131.597 22.7395 131.597 21.5823C131.597 20.4251 131.849 19.4783 132.354 18.7419C132.859 17.9844 133.554 17.4374 134.437 17.1007C135.321 16.7431 136.299 16.5642 137.372 16.5642C138.488 16.5642 139.476 16.7431 140.339 17.1007C141.202 17.4374 141.886 17.9844 142.391 18.7419C142.895 19.4783 143.148 20.4251 143.148 21.5823C143.148 22.7395 142.895 23.6863 142.391 24.4227C141.886 25.1591 141.202 25.7061 140.339 26.0638C139.476 26.4004 138.488 26.5687 137.372 26.5687ZM137.372 26.0007C138.109 26.0007 138.677 25.6851 139.077 25.0539C139.476 24.4227 139.676 23.2655 139.676 21.5823C139.676 19.8991 139.476 18.7419 139.077 18.1107C138.677 17.4584 138.109 17.1323 137.372 17.1323C136.678 17.1323 136.121 17.4584 135.7 18.1107C135.279 18.7419 135.069 19.8991 135.069 21.5823C135.069 23.2655 135.279 24.4227 135.7 25.0539C136.121 25.6851 136.678 26.0007 137.372 26.0007ZM142.043 19.2153L141.475 18.9943C141.77 18.2579 142.275 17.6162 142.99 17.0692C143.706 16.5221 144.452 16.2486 145.231 16.2486C145.82 16.2486 146.283 16.4169 146.62 16.7536C146.977 17.0692 147.156 17.5215 147.156 18.1107C147.156 18.7629 146.977 19.2258 146.62 19.4993C146.283 19.7728 145.925 19.9096 145.547 19.9096C145.21 19.9096 144.894 19.7939 144.6 19.5624C144.326 19.331 144.168 18.9733 144.126 18.4894C144.084 17.9844 144.242 17.3427 144.6 16.5642L144.947 16.6905C144.105 17.0271 143.485 17.3848 143.085 17.7635C142.706 18.1212 142.359 18.6051 142.043 19.2153ZM152.999 8.57953V20.0674C153.525 18.7629 154.261 17.8582 155.208 17.3532C156.176 16.8272 157.196 16.5642 158.269 16.5642C159.111 16.5642 159.795 16.6799 160.321 16.9114C160.868 17.1218 161.32 17.4163 161.678 17.7951C162.057 18.1948 162.33 18.7103 162.498 19.3415C162.667 19.9727 162.751 20.8248 162.751 21.8979V30.3559C162.751 31.2396 162.919 31.8393 163.256 32.1549C163.614 32.4705 164.203 32.6283 165.023 32.6283V33.291C164.645 33.27 164.076 33.2489 163.319 33.2279C162.562 33.1858 161.825 33.1648 161.11 33.1648C160.373 33.1648 159.648 33.1858 158.932 33.2279C158.238 33.2489 157.722 33.27 157.386 33.291V32.6283C158.101 32.6283 158.606 32.4705 158.901 32.1549C159.195 31.8393 159.342 31.2396 159.342 30.3559V21.0142C159.342 20.404 159.29 19.857 159.185 19.3731C159.079 18.8681 158.848 18.4683 158.49 18.1738C158.154 17.8582 157.649 17.7004 156.975 17.7004C156.218 17.7004 155.534 17.9213 154.924 18.3631C154.335 18.7839 153.862 19.3731 153.504 20.1305C153.167 20.8879 152.999 21.7506 152.999 22.7184V30.3559C152.999 31.2396 153.146 31.8393 153.441 32.1549C153.735 32.4705 154.24 32.6283 154.956 32.6283V33.291C154.598 33.27 154.072 33.2489 153.378 33.2279C152.704 33.1858 152.01 33.1648 151.295 33.1648C150.558 33.1648 149.801 33.1858 149.022 33.2279C148.265 33.2489 147.697 33.27 147.318 33.291V32.6283C148.139 32.6283 148.717 32.4705 149.054 32.1549C149.412 31.8393 149.59 31.2396 149.59 30.3559V12.3667C149.59 11.4199 149.422 10.7256 149.085 10.2838C148.77 9.82089 148.181 9.58945 147.318 9.58945V8.92669C147.991 8.98981 148.644 9.02137 149.275 9.02137C149.969 9.02137 150.632 8.98981 151.263 8.92669C151.894 8.84253 152.473 8.72681 152.999 8.57953ZM171.2 11.7987V17.0376H175.556V17.6688H171.2V30.0719C171.2 30.9345 171.358 31.5447 171.674 31.9024C171.989 32.2601 172.442 32.4389 173.031 32.4389C173.578 32.4389 174.062 32.218 174.483 31.7761C174.924 31.3343 175.303 30.5874 175.619 29.5354L176.218 29.7563C175.966 30.8714 175.514 31.8182 174.861 32.5967C174.23 33.3541 173.294 33.7329 172.052 33.7329C171.337 33.7329 170.737 33.6382 170.254 33.4488C169.77 33.2805 169.349 33.028 168.991 32.6914C168.528 32.2075 168.213 31.6289 168.044 30.9556C167.876 30.2823 167.792 29.3881 167.792 28.273V17.6688H164.888V17.0376H167.792V12.4299C168.444 12.4088 169.054 12.3562 169.622 12.2721C170.19 12.1669 170.716 12.0091 171.2 11.7987Z" fill="#1565C0"/>
</svg>
