<svg width="40" height="40" viewBox="0 0 40 40" fill="none" xmlns="http://www.w3.org/2000/svg">
<path fill-rule="evenodd" clip-rule="evenodd" d="M26.6663 19.9997C26.6663 21.7678 25.964 23.4635 24.7137 24.7137C23.4635 25.964 21.7678 26.6663 19.9997 26.6663C18.2316 26.6663 16.5359 25.964 15.2856 24.7137C14.0354 23.4635 13.333 21.7678 13.333 19.9997C13.333 18.2316 14.0354 16.5359 15.2856 15.2856C16.5359 14.0354 18.2316 13.333 19.9997 13.333C21.7678 13.333 23.4635 14.0354 24.7137 15.2856C25.964 16.5359 26.6663 18.2316 26.6663 19.9997ZM23.333 19.9997C23.333 20.8837 22.9818 21.7316 22.3567 22.3567C21.7316 22.9818 20.8837 23.333 19.9997 23.333C19.1156 23.333 18.2678 22.9818 17.6427 22.3567C17.0175 21.7316 16.6663 20.8837 16.6663 19.9997C16.6663 19.1156 17.0175 18.2678 17.6427 17.6427C18.2678 17.0175 19.1156 16.6663 19.9997 16.6663C20.8837 16.6663 21.7316 17.0175 22.3567 17.6427C22.9818 18.2678 23.333 19.1156 23.333 19.9997Z" fill="#22C55E"/>
<path fill-rule="evenodd" clip-rule="evenodd" d="M19.9999 5C29.3199 5 37.1499 11.3733 39.3699 20C37.1499 28.6267 29.3199 35 19.9999 35C10.6799 35 2.84988 28.6267 0.629883 20C2.84988 11.3733 10.6799 5 19.9999 5ZM19.9999 31.6667C12.5399 31.6667 6.21822 26.7633 4.09488 20C6.21822 13.2367 12.5399 8.33333 19.9999 8.33333C27.4599 8.33333 33.7815 13.2367 35.9049 20C33.7815 26.7633 27.4599 31.6667 19.9999 31.6667Z" fill="#22C55E"/>
</svg>
