<svg width="32" height="32" viewBox="0 0 32 32" fill="none" xmlns="http://www.w3.org/2000/svg">
<path d="M14.0864 2.76544C14.6839 2.48012 15.3376 2.33203 15.9998 2.33203C16.6619 2.33203 17.3156 2.48012 17.9131 2.76544C18.4384 3.01744 18.9198 3.42811 19.5931 4.00278L19.6984 4.09078C20.3384 4.63744 20.9504 4.89611 21.8051 4.96411L21.9411 4.97478C22.8237 5.04544 23.4544 5.09478 24.0038 5.28944C24.6281 5.51001 25.1952 5.86743 25.6635 6.33553C26.1318 6.80363 26.4895 7.37055 26.7104 7.99478C26.9038 8.54411 26.9531 9.17478 27.0238 10.0574L27.0344 10.1934C27.1024 11.0481 27.3624 11.6601 27.9078 12.3001L27.9958 12.4041C28.5704 13.0788 28.9824 13.5601 29.2331 14.0854C29.5184 14.6829 29.6665 15.3367 29.6665 15.9988C29.6665 16.6609 29.5184 17.3146 29.2331 17.9121C28.9811 18.4374 28.5704 18.9188 27.9958 19.5921L27.9078 19.6974C27.3504 20.3508 27.1011 20.9654 27.0344 21.8041L27.0238 21.9401C26.9531 22.8228 26.9038 23.4534 26.7091 24.0028C26.4885 24.6271 26.1311 25.1942 25.663 25.6625C25.1949 26.1309 24.628 26.4886 24.0038 26.7094C23.4544 26.9028 22.8237 26.9521 21.9411 27.0228L21.8051 27.0334C20.9504 27.1014 20.3384 27.3614 19.6984 27.9068L19.5931 27.9948C18.9198 28.5694 18.4384 28.9814 17.9131 29.2321C17.3156 29.5174 16.6619 29.6655 15.9998 29.6655C15.3376 29.6655 14.6839 29.5174 14.0864 29.2321C13.5611 28.9801 13.0798 28.5694 12.4064 27.9948L12.3011 27.9068C11.7198 27.3828 10.976 27.0744 10.1944 27.0334L10.0584 27.0228C9.17575 26.9521 8.54509 26.9028 7.99575 26.7081C7.37142 26.4875 6.80432 26.1301 6.33599 25.662C5.86767 25.1939 5.50996 24.627 5.28909 24.0028C5.09575 23.4534 5.04642 22.8228 4.97575 21.9401L4.96509 21.8041C4.92411 21.0225 4.61578 20.2788 4.09175 19.6974L4.00375 19.5921C3.42909 18.9188 3.01709 18.4374 2.76642 17.9121C2.48109 17.3146 2.33301 16.6609 2.33301 15.9988C2.33301 15.3367 2.48109 14.6829 2.76642 14.0854C3.01842 13.5601 3.42909 13.0788 4.00375 12.4054L4.09175 12.3001C4.61578 11.7188 4.92411 10.975 4.96509 10.1934L4.97575 10.0574C5.04642 9.17478 5.09575 8.54411 5.29042 7.99478C5.51099 7.37044 5.86841 6.80334 6.33651 6.33502C6.80461 5.86669 7.37153 5.50899 7.99575 5.28811C8.54509 5.09478 9.17575 5.04544 10.0584 4.97478L10.1944 4.96411C10.976 4.92313 11.7198 4.6148 12.3011 4.09078L12.4051 4.00278C13.0798 3.42811 13.5611 3.01611 14.0864 2.76544ZM20.3331 13.3254C20.3331 12.0774 19.7291 11.1228 18.8704 10.5148C18.0411 9.92677 16.9931 9.66544 15.9998 9.66544C15.0064 9.66544 13.9584 9.92677 13.1291 10.5148C12.2718 11.1228 11.6664 12.0774 11.6664 13.3241C11.6664 13.5893 11.7718 13.8437 11.9593 14.0312C12.1468 14.2188 12.4012 14.3241 12.6664 14.3241C12.9316 14.3241 13.186 14.2188 13.3735 14.0312C13.5611 13.8437 13.6664 13.5893 13.6664 13.3241C13.6664 12.7988 13.8958 12.4241 14.2864 12.1454C14.7078 11.8468 15.3264 11.6654 15.9998 11.6654C16.6731 11.6654 17.2918 11.8468 17.7131 12.1454C18.1024 12.4214 18.3304 12.7934 18.3331 13.3148L18.3304 13.3508C18.3264 13.3908 18.3198 13.4574 18.3024 13.5388C18.2588 13.7486 18.1794 13.9493 18.0678 14.1321C17.8464 14.4881 17.3451 14.9988 15.9998 14.9988C15.7345 14.9988 15.4802 15.1041 15.2926 15.2917C15.1051 15.4792 14.9998 15.7336 14.9998 15.9988C14.9998 16.264 15.1051 16.5183 15.2926 16.7059C15.4802 16.8934 15.7345 16.9988 15.9998 16.9988C17.3464 16.9988 17.8464 17.5094 18.0678 17.8654C18.2186 18.1135 18.3094 18.3934 18.3331 18.6828C18.3304 19.2028 18.1024 19.5761 17.7131 19.8521C17.2918 20.1508 16.6731 20.3321 15.9998 20.3321C15.3264 20.3321 14.7078 20.1508 14.2864 19.8521C13.8958 19.5734 13.6664 19.1988 13.6664 18.6734C13.6664 18.4082 13.5611 18.1539 13.3735 17.9663C13.186 17.7788 12.9316 17.6734 12.6664 17.6734C12.4012 17.6734 12.1468 17.7788 11.9593 17.9663C11.7718 18.1539 11.6664 18.4082 11.6664 18.6734C11.6664 19.9201 12.2718 20.8734 13.1291 21.4828C13.9584 22.0708 15.0064 22.3321 15.9998 22.3321C16.9931 22.3321 18.0411 22.0708 18.8704 21.4828C19.7278 20.8748 20.3331 19.9201 20.3331 18.6734V18.6708C20.306 18.0111 20.1104 17.3694 19.7651 16.8068C19.5765 16.5048 19.3442 16.2325 19.0758 15.9988C19.3571 15.7534 19.5851 15.4788 19.7651 15.1908C20.1104 14.6281 20.306 13.9864 20.3331 13.3268V13.3254Z" fill="#22C55E"/>
</svg>
