<svg width="40" height="40" viewBox="0 0 40 40" fill="none" xmlns="http://www.w3.org/2000/svg">
<path d="M20 6.25C16.3533 6.25 12.8559 7.69866 10.2773 10.2773C7.69866 12.8559 6.25 16.3533 6.25 20C6.25 23.6467 7.69866 27.1441 10.2773 29.7227C12.8559 32.3013 16.3533 33.75 20 33.75C23.6467 33.75 27.1441 32.3013 29.7227 29.7227C32.3013 27.1441 33.75 23.6467 33.75 20C33.75 16.3533 32.3013 12.8559 29.7227 10.2773C27.1441 7.69866 23.6467 6.25 20 6.25ZM3.75 20C3.75 11.025 11.025 3.75 20 3.75C28.975 3.75 36.25 11.025 36.25 20C36.25 28.975 28.975 36.25 20 36.25C11.025 36.25 3.75 28.975 3.75 20ZM20 12.5C18.0109 12.5 16.1032 13.2902 14.6967 14.6967C13.2902 16.1032 12.5 18.0109 12.5 20C12.5 21.9891 13.2902 23.8968 14.6967 25.3033C16.1032 26.7098 18.0109 27.5 20 27.5C21.9891 27.5 23.8968 26.7098 25.3033 25.3033C26.7098 23.8968 27.5 21.9891 27.5 20C27.5 18.0109 26.7098 16.1032 25.3033 14.6967C23.8968 13.2902 21.9891 12.5 20 12.5ZM10 20C10 17.3478 11.0536 14.8043 12.9289 12.9289C14.8043 11.0536 17.3478 10 20 10C22.6522 10 25.1957 11.0536 27.0711 12.9289C28.9464 14.8043 30 17.3478 30 20C30 22.6522 28.9464 25.1957 27.0711 27.0711C25.1957 28.9464 22.6522 30 20 30C17.3478 30 14.8043 28.9464 12.9289 27.0711C11.0536 25.1957 10 22.6522 10 20ZM16.25 20C16.25 19.0054 16.6451 18.0516 17.3483 17.3483C18.0516 16.6451 19.0054 16.25 20 16.25C20.9946 16.25 21.9484 16.6451 22.6516 17.3483C23.3549 18.0516 23.75 19.0054 23.75 20C23.75 20.9946 23.3549 21.9484 22.6516 22.6516C21.9484 23.3549 20.9946 23.75 20 23.75C19.0054 23.75 18.0516 23.3549 17.3483 22.6516C16.6451 21.9484 16.25 20.9946 16.25 20Z" fill="#1565C0"/>
</svg>
