<svg width="32" height="32" viewBox="0 0 32 32" fill="none" xmlns="http://www.w3.org/2000/svg">
<path d="M14.0864 2.76544C14.6839 2.48012 15.3376 2.33203 15.9998 2.33203C16.6619 2.33203 17.3156 2.48012 17.9131 2.76544C18.4384 3.01744 18.9198 3.42811 19.5931 4.00278L19.6984 4.09078C20.3384 4.63744 20.9504 4.89611 21.8051 4.96411L21.9411 4.97478C22.8237 5.04544 23.4544 5.09478 24.0038 5.28944C24.6281 5.51001 25.1952 5.86743 25.6635 6.33553C26.1318 6.80363 26.4895 7.37055 26.7104 7.99478C26.9038 8.54411 26.9531 9.17478 27.0238 10.0574L27.0344 10.1934C27.1024 11.0481 27.3624 11.6601 27.9078 12.3001L27.9958 12.4041C28.5704 13.0788 28.9824 13.5601 29.2331 14.0854C29.5184 14.6829 29.6665 15.3367 29.6665 15.9988C29.6665 16.6609 29.5184 17.3146 29.2331 17.9121C28.9811 18.4374 28.5704 18.9188 27.9958 19.5921L27.9078 19.6974C27.3504 20.3508 27.1011 20.9654 27.0344 21.8041L27.0238 21.9401C26.9531 22.8228 26.9038 23.4534 26.7091 24.0028C26.4885 24.6271 26.1311 25.1942 25.663 25.6625C25.1949 26.1309 24.628 26.4886 24.0038 26.7094C23.4544 26.9028 22.8237 26.9521 21.9411 27.0228L21.8051 27.0334C20.9504 27.1014 20.3384 27.3614 19.6984 27.9068L19.5931 27.9948C18.9198 28.5694 18.4384 28.9814 17.9131 29.2321C17.3156 29.5174 16.6619 29.6655 15.9998 29.6655C15.3376 29.6655 14.6839 29.5174 14.0864 29.2321C13.5611 28.9801 13.0798 28.5694 12.4064 27.9948L12.3011 27.9068C11.7198 27.3828 10.976 27.0744 10.1944 27.0334L10.0584 27.0228C9.17575 26.9521 8.54509 26.9028 7.99575 26.7081C7.37142 26.4875 6.80432 26.1301 6.33599 25.662C5.86767 25.1939 5.50996 24.627 5.28909 24.0028C5.09575 23.4534 5.04642 22.8228 4.97575 21.9401L4.96509 21.8041C4.92411 21.0225 4.61578 20.2788 4.09175 19.6974L4.00375 19.5921C3.42909 18.9188 3.01709 18.4374 2.76642 17.9121C2.48109 17.3146 2.33301 16.6609 2.33301 15.9988C2.33301 15.3367 2.48109 14.6829 2.76642 14.0854C3.01842 13.5601 3.42909 13.0788 4.00375 12.4054L4.09175 12.3001C4.61578 11.7188 4.92411 10.975 4.96509 10.1934L4.97575 10.0574C5.04642 9.17478 5.09575 8.54411 5.29042 7.99478C5.51099 7.37044 5.86841 6.80334 6.33651 6.33502C6.80461 5.86669 7.37153 5.50899 7.99575 5.28811C8.54509 5.09478 9.17575 5.04544 10.0584 4.97478L10.1944 4.96411C10.976 4.92313 11.7198 4.6148 12.3011 4.09078L12.4051 4.00278C13.0798 3.42811 13.5611 3.01611 14.0864 2.76544ZM17.9998 10.6654C17.9998 10.481 17.9489 10.3 17.8525 10.1427C17.7562 9.98539 17.6182 9.85778 17.4538 9.77401C17.2895 9.69024 17.1051 9.65357 16.9212 9.66806C16.7373 9.68255 16.561 9.74763 16.4118 9.85611L12.7451 12.5228C12.5304 12.6787 12.3865 12.9136 12.345 13.1756C12.3035 13.4377 12.3678 13.7055 12.5238 13.9201C12.6797 14.1348 12.9145 14.2787 13.1766 14.3202C13.4386 14.3617 13.7064 14.2974 13.9211 14.1414L16.0011 12.6294V21.3321C16.0011 21.5973 16.1064 21.8517 16.294 22.0392C16.4815 22.2268 16.7359 22.3321 17.0011 22.3321C17.2663 22.3321 17.5207 22.2268 17.7082 22.0392C17.8957 21.8517 18.0011 21.5973 18.0011 21.3321L17.9998 10.6654Z" fill="#1565C0"/>
</svg>
