<svg width="32" height="32" viewBox="0 0 32 32" fill="none" xmlns="http://www.w3.org/2000/svg">
<path d="M14.0864 2.76544C14.6839 2.48012 15.3376 2.33203 15.9998 2.33203C16.6619 2.33203 17.3156 2.48012 17.9131 2.76544C18.4384 3.01744 18.9198 3.42811 19.5931 4.00278L19.6984 4.09078C20.3384 4.63744 20.9504 4.89611 21.8051 4.96411L21.9411 4.97478C22.8237 5.04544 23.4544 5.09478 24.0038 5.28944C24.6281 5.51001 25.1952 5.86743 25.6635 6.33553C26.1318 6.80363 26.4895 7.37055 26.7104 7.99478C26.9038 8.54411 26.9531 9.17478 27.0238 10.0574L27.0344 10.1934C27.1024 11.0481 27.3624 11.6601 27.9078 12.3001L27.9958 12.4041C28.5704 13.0788 28.9824 13.5601 29.2331 14.0854C29.5184 14.6829 29.6665 15.3367 29.6665 15.9988C29.6665 16.6609 29.5184 17.3146 29.2331 17.9121C28.9811 18.4374 28.5704 18.9188 27.9958 19.5921L27.9078 19.6974C27.3504 20.3508 27.1011 20.9654 27.0344 21.8041L27.0238 21.9401C26.9531 22.8228 26.9038 23.4534 26.7091 24.0028C26.4885 24.6271 26.1311 25.1942 25.663 25.6625C25.1949 26.1309 24.628 26.4886 24.0038 26.7094C23.4544 26.9028 22.8237 26.9521 21.9411 27.0228L21.8051 27.0334C20.9504 27.1014 20.3384 27.3614 19.6984 27.9068L19.5931 27.9948C18.9198 28.5694 18.4384 28.9814 17.9131 29.2321C17.3156 29.5174 16.6619 29.6655 15.9998 29.6655C15.3376 29.6655 14.6839 29.5174 14.0864 29.2321C13.5611 28.9801 13.0798 28.5694 12.4064 27.9948L12.3011 27.9068C11.7198 27.3828 10.976 27.0744 10.1944 27.0334L10.0584 27.0228C9.17575 26.9521 8.54509 26.9028 7.99575 26.7081C7.37142 26.4875 6.80432 26.1301 6.33599 25.662C5.86767 25.1939 5.50996 24.627 5.28909 24.0028C5.09575 23.4534 5.04642 22.8228 4.97575 21.9401L4.96509 21.8041C4.92411 21.0225 4.61578 20.2788 4.09175 19.6974L4.00375 19.5921C3.42909 18.9188 3.01709 18.4374 2.76642 17.9121C2.48109 17.3146 2.33301 16.6609 2.33301 15.9988C2.33301 15.3367 2.48109 14.6829 2.76642 14.0854C3.01842 13.5601 3.42909 13.0788 4.00375 12.4054L4.09175 12.3001C4.61578 11.7188 4.92411 10.975 4.96509 10.1934L4.97575 10.0574C5.04642 9.17478 5.09575 8.54411 5.29042 7.99478C5.51099 7.37044 5.86841 6.80334 6.33651 6.33502C6.80461 5.86669 7.37153 5.50899 7.99575 5.28811C8.54509 5.09478 9.17575 5.04544 10.0584 4.97478L10.1944 4.96411C10.976 4.92313 11.7198 4.6148 12.3011 4.09078L12.4051 4.00278C13.0798 3.42811 13.5611 3.01611 14.0864 2.76544ZM13.6664 13.7814C13.6664 13.0094 13.9424 12.5068 14.2971 12.1881C14.6691 11.8534 15.1904 11.6654 15.7438 11.6654C16.2971 11.6654 16.8184 11.8521 17.1904 12.1881C17.5438 12.5068 17.8198 13.0094 17.8198 13.7814C17.8198 14.9308 17.0678 16.1428 15.8331 17.3868C14.9104 18.3174 13.8544 19.1374 12.9064 19.8721C12.6042 20.1068 12.3153 20.3334 12.0398 20.5521C11.8782 20.6818 11.7608 20.8584 11.7039 21.0576C11.6471 21.2568 11.6535 21.4688 11.7223 21.6642C11.7911 21.8596 11.9189 22.0288 12.088 22.1485C12.2571 22.2681 12.4592 22.3323 12.6664 22.3321H19.3331C19.5983 22.3321 19.8527 22.2268 20.0402 22.0392C20.2277 21.8517 20.3331 21.5973 20.3331 21.3321C20.3331 21.0669 20.2277 20.8125 20.0402 20.625C19.8527 20.4375 19.5983 20.3321 19.3331 20.3321H15.5464C16.1238 19.8561 16.7144 19.3388 17.2531 18.7948C18.5624 17.4748 19.8197 15.7668 19.8197 13.7814C19.8197 12.4748 19.3264 11.4214 18.5278 10.7014C17.7451 9.99744 16.7291 9.66544 15.7438 9.66544C14.7584 9.66544 13.7411 9.99744 12.9584 10.7014C12.1584 11.4214 11.6664 12.4748 11.6664 13.7814C11.6664 14.0467 11.7718 14.301 11.9593 14.4885C12.1468 14.6761 12.4012 14.7814 12.6664 14.7814C12.9316 14.7814 13.186 14.6761 13.3735 14.4885C13.5611 14.301 13.6664 14.0467 13.6664 13.7814Z" fill="#F59E0B"/>
</svg>
