<svg width="32" height="32" viewBox="0 0 32 32" fill="none" xmlns="http://www.w3.org/2000/svg">
<path d="M14.0864 2.76544C14.6839 2.48012 15.3376 2.33203 15.9998 2.33203C16.6619 2.33203 17.3156 2.48012 17.9131 2.76544C18.4384 3.01744 18.9198 3.42811 19.5931 4.00278L19.6984 4.09078C20.3384 4.63744 20.9504 4.89611 21.8051 4.96411L21.9411 4.97478C22.8237 5.04544 23.4544 5.09478 24.0038 5.28944C24.6281 5.51001 25.1952 5.86743 25.6635 6.33553C26.1318 6.80363 26.4895 7.37055 26.7104 7.99478C26.9038 8.54411 26.9531 9.17478 27.0238 10.0574L27.0344 10.1934C27.1024 11.0481 27.3624 11.6601 27.9078 12.3001L27.9958 12.4041C28.5704 13.0788 28.9824 13.5601 29.2331 14.0854C29.5184 14.6829 29.6665 15.3367 29.6665 15.9988C29.6665 16.6609 29.5184 17.3146 29.2331 17.9121C28.9811 18.4374 28.5704 18.9188 27.9958 19.5921L27.9078 19.6974C27.3504 20.3508 27.1011 20.9654 27.0344 21.8041L27.0238 21.9401C26.9531 22.8228 26.9038 23.4534 26.7091 24.0028C26.4885 24.6271 26.1311 25.1942 25.663 25.6625C25.1949 26.1309 24.628 26.4886 24.0038 26.7094C23.4544 26.9028 22.8237 26.9521 21.9411 27.0228L21.8051 27.0334C20.9504 27.1014 20.3384 27.3614 19.6984 27.9068L19.5931 27.9948C18.9198 28.5694 18.4384 28.9814 17.9131 29.2321C17.3156 29.5174 16.6619 29.6655 15.9998 29.6655C15.3376 29.6655 14.6839 29.5174 14.0864 29.2321C13.5611 28.9801 13.0798 28.5694 12.4064 27.9948L12.3011 27.9068C11.7198 27.3828 10.976 27.0744 10.1944 27.0334L10.0584 27.0228C9.17575 26.9521 8.54509 26.9028 7.99575 26.7081C7.37142 26.4875 6.80432 26.1301 6.33599 25.662C5.86767 25.1939 5.50996 24.627 5.28909 24.0028C5.09575 23.4534 5.04642 22.8228 4.97575 21.9401L4.96509 21.8041C4.92411 21.0225 4.61578 20.2788 4.09175 19.6974L4.00375 19.5921C3.42909 18.9188 3.01709 18.4374 2.76642 17.9121C2.48109 17.3146 2.33301 16.6609 2.33301 15.9988C2.33301 15.3367 2.48109 14.6829 2.76642 14.0854C3.01842 13.5601 3.42909 13.0788 4.00375 12.4054L4.09175 12.3001C4.61578 11.7188 4.92411 10.975 4.96509 10.1934L4.97575 10.0574C5.04642 9.17478 5.09575 8.54411 5.29042 7.99478C5.51099 7.37044 5.86841 6.80334 6.33651 6.33502C6.80461 5.86669 7.37153 5.50899 7.99575 5.28811C8.54509 5.09478 9.17575 5.04544 10.0584 4.97478L10.1944 4.96411C10.976 4.92313 11.7198 4.6148 12.3011 4.09078L12.4051 4.00278C13.0798 3.42811 13.5611 3.01611 14.0864 2.76544ZM17.7411 10.9334C17.7782 10.8063 17.7897 10.6732 17.775 10.5416C17.7602 10.41 17.7195 10.2827 17.6551 10.167C17.5907 10.0513 17.504 9.94948 17.4 9.86754C17.296 9.78561 17.1768 9.72514 17.0492 9.68966C16.9217 9.65417 16.7883 9.64437 16.6569 9.66082C16.5256 9.67727 16.3988 9.71965 16.2839 9.78549C16.169 9.85133 16.0684 9.93933 15.9878 10.0444C15.9072 10.1494 15.8483 10.2694 15.8144 10.3974C15.3038 12.2348 14.2678 13.9574 13.3304 15.2428C12.8415 15.9129 12.314 16.554 11.7504 17.1628L11.6544 17.2628L11.6304 17.2868L11.6251 17.2921C11.4853 17.432 11.3902 17.6103 11.3517 17.8043C11.3133 17.9982 11.3332 18.1993 11.409 18.382C11.4847 18.5646 11.613 18.7207 11.7775 18.8305C11.942 18.9403 12.1353 18.9989 12.3331 18.9988H16.3331V21.3321C16.3331 21.5973 16.4384 21.8517 16.626 22.0392C16.8135 22.2268 17.0679 22.3321 17.3331 22.3321C17.5983 22.3321 17.8527 22.2268 18.0402 22.0392C18.2277 21.8517 18.3331 21.5973 18.3331 21.3321V18.9988H18.9998C19.265 18.9988 19.5193 18.8934 19.7069 18.7059C19.8944 18.5183 19.9998 18.264 19.9998 17.9988C19.9998 17.7336 19.8944 17.4792 19.7069 17.2917C19.5193 17.1041 19.265 16.9988 18.9998 16.9988H18.3331V15.9988C18.3331 15.7336 18.2277 15.4792 18.0402 15.2917C17.8527 15.1041 17.5983 14.9988 17.3331 14.9988C17.0679 14.9988 16.8135 15.1041 16.626 15.2917C16.4384 15.4792 16.3331 15.7336 16.3331 15.9988V16.9988H14.5118C14.6531 16.8183 14.798 16.6259 14.9464 16.4214C15.9531 15.0414 17.1398 13.0961 17.7411 10.9334Z" fill="#FEF0DA"/>
</svg>
