<svg width="39" height="43" viewBox="0 0 39 43" fill="none" xmlns="http://www.w3.org/2000/svg">
<g filter="url(#filter0_d_5514_3001)">
<path fill-rule="evenodd" clip-rule="evenodd" d="M9.30681 2.49142C9.30573 2.49095 9.30461 2.4906 9.30346 2.49036C9.30155 2.48996 9.29972 2.48924 9.29804 2.48825C8.73441 2.15537 8.08895 1.98661 7.43448 2.00106C6.77903 2.01552 6.14071 2.21316 5.59177 2.57161C5.04282 2.93005 4.60516 3.435 4.32832 4.02929C4.05148 4.62358 3.9465 5.2835 4.02528 5.93436L4.02614 5.94177L4.02784 5.95658L4.03468 6.01581L4.06394 6.24354L4.17125 7.10906L4.56001 10.2134L7.3104 32.3327L7.42503 33.2551L7.4554 33.512C7.46107 33.5612 7.46101 33.6109 7.45755 33.6603C7.42769 34.0871 7.51511 34.5144 7.71103 34.8958C7.91833 35.2993 8.23818 35.634 8.63184 35.8594C9.02551 36.0848 9.47609 36.1912 9.92899 36.1657C10.3819 36.1402 10.8177 35.9839 11.1836 35.7157C11.4002 35.5791 11.5931 35.4081 11.7547 35.2094C11.9012 35.0282 12.0252 34.8158 12.1436 34.6191L12.1478 34.6104L15.8331 28.4716L18.2411 24.4587L19.0294 23.1478C19.0338 23.1411 19.0411 23.1369 19.0491 23.1363L19.0535 23.136L20.5824 22.9319L25.2539 22.3062C27.6343 21.9923 30.0131 21.6672 32.3904 21.3309L32.5052 21.3116C32.7798 21.2657 33.2706 21.1881 33.7116 20.9001C33.9693 20.7319 34.1914 20.5146 34.3651 20.2605C34.5388 20.0065 34.6607 19.7207 34.724 19.4195C34.7872 19.1183 34.7905 18.8076 34.7336 18.5051C34.6767 18.2026 34.5608 17.9144 34.3925 17.6567L34.3743 17.6288C34.2758 17.4629 34.1618 17.3067 34.0339 17.1623C33.8094 16.9294 33.5467 16.7368 33.2571 16.5927C33.2559 16.5921 33.2546 16.5917 33.2533 16.5914C33.2515 16.591 33.2499 16.5904 33.2484 16.5895L33.1757 16.5462L32.9435 16.4132L32.1238 15.9352L29.3407 14.3008C23.885 11.0909 18.4316 7.87707 12.9805 4.65928L10.3096 3.08696L9.56495 2.6416L9.36445 2.52966L9.32133 2.49906C9.31794 2.49666 9.31432 2.49463 9.31051 2.493L9.30681 2.49142Z" fill="#1565C0"/>
<path d="M20.4831 22.1881L18.9543 22.393C18.7314 22.421 18.5306 22.5437 18.4052 22.7317L18.3951 22.7466L18.3869 22.7618L17.598 24.072L17.5978 24.073L15.1897 28.0857L11.5051 34.2242L11.4882 34.2526L11.4833 34.2616C11.3638 34.4602 11.2739 34.6111 11.1731 34.7363C11.0629 34.8717 10.931 34.9884 10.7833 35.0815L10.7615 35.0949L10.7403 35.1104C10.4914 35.2928 10.1947 35.3998 9.88661 35.4171C9.57862 35.4344 9.27221 35.3613 9.00451 35.208C8.73682 35.0547 8.51873 34.8269 8.37776 34.5526C8.24476 34.2934 8.18554 34.0031 8.20574 33.7132C8.21153 33.6303 8.21249 33.5319 8.20024 33.4256L8.20064 33.4237L8.16977 33.1668L8.16962 33.1628L8.05488 32.2406L5.30474 10.1206L5.30379 10.1204L4.91588 7.01547L4.80787 6.1516L4.80771 6.14758L4.77867 5.91996L4.77124 5.85553L4.77073 5.84844L4.76962 5.84422L4.75307 5.65215C4.73033 5.20348 4.81788 4.75466 5.00839 4.34568C5.22613 3.87844 5.56987 3.48092 6.00149 3.19909C6.43311 2.91726 6.93531 2.7624 7.45066 2.75095C7.96537 2.73959 8.47372 2.87184 8.91699 3.13364C8.91929 3.135 8.92191 3.13582 8.92423 3.13715L8.93032 3.14143L8.96343 3.16434L8.99905 3.18479L9.17851 3.28533L9.17946 3.28553L9.92429 3.73028L9.92867 3.7332L12.6 5.30586L12.6002 5.3049C18.0514 8.52275 23.5045 11.7373 28.9603 14.9472L28.9613 14.9474L31.7443 16.5824L31.7462 16.5828L32.5658 17.0612L32.5702 17.0642L32.8027 17.1968L32.8648 17.2338C32.8897 17.2486 32.9162 17.2602 32.9426 17.2721C32.9363 17.2692 32.9296 17.2671 32.9233 17.264C33.1307 17.3672 33.3185 17.5051 33.4806 17.6704C33.5736 17.7766 33.6571 17.8906 33.7292 18.012L33.7373 18.0257L33.7466 18.0386L33.7647 18.0663L33.7645 18.0673C33.8789 18.2424 33.9581 18.4384 33.9967 18.6439C34.0353 18.8494 34.033 19.0605 33.99 19.2652C33.947 19.4699 33.8642 19.6649 33.7461 19.8376C33.6576 19.967 33.5505 20.0823 33.4287 20.1801L33.3016 20.2722C33.0818 20.4157 32.8344 20.4858 32.6045 20.5319L32.3815 20.5719L32.2852 20.5886C29.9103 20.9246 27.5337 21.249 25.1557 21.5625L25.1545 21.5633L20.4831 22.1881ZM33.0992 17.3249C33.0649 17.3177 33.0317 17.3069 32.9987 17.2948C33.0316 17.3066 33.0648 17.3177 33.0992 17.3249ZM8.99019 3.16996C8.97462 3.16254 8.95922 3.15491 8.94425 3.14635C8.95946 3.15454 8.97446 3.16281 8.99019 3.16996Z" stroke="#FFFFFE" stroke-width="1.5"/>
</g>
<defs>
<filter id="filter0_d_5514_3001" x="0" y="0" width="38.7739" height="42.1699" filterUnits="userSpaceOnUse" color-interpolation-filters="sRGB">
<feFlood flood-opacity="0" result="BackgroundImageFix"/>
<feColorMatrix in="SourceAlpha" type="matrix" values="0 0 0 0 0 0 0 0 0 0 0 0 0 0 0 0 0 0 127 0" result="hardAlpha"/>
<feOffset dy="2"/>
<feGaussianBlur stdDeviation="2"/>
<feComposite in2="hardAlpha" operator="out"/>
<feColorMatrix type="matrix" values="0 0 0 0 0 0 0 0 0 0 0 0 0 0 0 0 0 0 0.24 0"/>
<feBlend mode="normal" in2="BackgroundImageFix" result="effect1_dropShadow_5514_3001"/>
<feBlend mode="normal" in="SourceGraphic" in2="effect1_dropShadow_5514_3001" result="shape"/>
</filter>
</defs>
</svg>
