<svg width="26" height="26" viewBox="0 0 26 26" fill="none" xmlns="http://www.w3.org/2000/svg">
<path d="M9.62573 5.26514C10.0281 4.24495 11.4719 4.24495 11.8743 5.26514L13.0128 8.15199C13.7499 10.0208 15.2292 11.5001 17.098 12.2372L19.9849 13.3757C21.005 13.7781 21.005 15.2219 19.9849 15.6243L17.098 16.7628C15.2292 17.4999 13.7499 18.9792 13.0128 20.848L11.8743 23.7349C11.4719 24.755 10.0281 24.755 9.62573 23.7349L8.48717 20.848C7.75012 18.9792 6.27081 17.4999 4.40199 16.7628L1.51514 15.6243C0.494952 15.2219 0.494953 13.7781 1.51514 13.3757L4.40199 12.2372C6.27081 11.5001 7.75012 10.0208 8.48717 8.15199L9.62573 5.26514Z" stroke="#CC34FF" stroke-width="1.5"/>
<path d="M20.3284 1.03693C20.4793 0.654357 21.0207 0.654357 21.1716 1.03693L21.5986 2.1195C21.875 2.82031 22.4297 3.37505 23.1305 3.65144L24.2131 4.0784C24.5956 4.22928 24.5956 4.77072 24.2131 4.9216L23.1305 5.34856C22.4297 5.62495 21.875 6.17969 21.5986 6.8805L21.1716 7.96307C21.0207 8.34564 20.4793 8.34564 20.3284 7.96307L19.9014 6.8805C19.625 6.17969 19.0703 5.62495 18.3695 5.34856L17.2869 4.9216C16.9044 4.77072 16.9044 4.22928 17.2869 4.0784L18.3695 3.65144C19.0703 3.37505 19.625 2.82031 19.9014 2.1195L20.3284 1.03693Z" stroke="#CC34FF" stroke-width="1.5"/>
</svg>
